<svg width="2136" height="1958" viewBox="0 0 2136 1958" fill="none" xmlns="http://www.w3.org/2000/svg">
<path d="M312.69 1808.49C729.61 2007.17 1405.59 2007.17 1822.51 1808.49C2239.43 1609.8 2239.43 1287.61 1822.51 1088.88C1405.59 890.141 729.61 890.189 312.69 1088.88C-104.23 1287.56 -104.23 1609.75 312.69 1808.49Z" fill="#F0F0F0"/>
<path d="M1140.45 1687.16C1208.84 1687.16 1264.29 1660.73 1264.29 1628.14C1264.29 1595.54 1208.84 1569.11 1140.45 1569.11C1072.06 1569.11 1016.61 1595.54 1016.61 1628.14C1016.61 1660.73 1072.06 1687.16 1140.45 1687.16Z" fill="#E0E0E0"/>
<path d="M553.557 1109.92L330.064 980.87L106.522 1109.92L330.064 1238.97L553.557 1109.92Z" fill="#F0F0F0"/>
<path d="M330.064 1411.06L553.557 1282.01V1109.92L330.064 1238.97V1411.06Z" fill="#EBEBEB"/>
<path d="M363.46 1371.15C363.018 1371.16 362.583 1371.04 362.205 1370.81C361.753 1370.52 361.389 1370.11 361.151 1369.62C360.913 1369.14 360.81 1368.6 360.854 1368.06V1364.93C360.854 1364.62 360.976 1364.32 361.193 1364.11C361.411 1363.89 361.705 1363.77 362.012 1363.77C362.162 1363.77 362.311 1363.8 362.449 1363.86C362.586 1363.91 362.711 1364 362.815 1364.11C362.918 1364.22 362.999 1364.35 363.052 1364.49C363.105 1364.63 363.129 1364.78 363.122 1364.93V1368.06C363.122 1368.54 363.122 1368.79 363.122 1368.83C363.122 1368.88 363.46 1368.83 363.894 1368.83C364.592 1368.16 365.142 1367.35 365.507 1366.45C365.873 1365.56 366.047 1364.59 366.018 1363.62V1343.26C366.018 1342.96 366.135 1342.68 366.343 1342.47C366.551 1342.26 366.834 1342.15 367.128 1342.15C367.278 1342.14 367.427 1342.16 367.568 1342.22C367.708 1342.27 367.836 1342.35 367.944 1342.45C368.052 1342.56 368.139 1342.68 368.197 1342.82C368.256 1342.96 368.286 1343.11 368.286 1343.26V1363.24C368.337 1364.6 368.072 1365.96 367.511 1367.21C366.95 1368.46 366.109 1369.56 365.053 1370.43C364.583 1370.78 364.038 1371.03 363.46 1371.15Z" fill="#E0E0E0"/>
<path d="M351.298 1353.58V1351.61C351.549 1346.53 352.991 1341.58 355.505 1337.16C358.02 1332.75 361.539 1328.98 365.776 1326.17C367.294 1324.84 369.192 1324.02 371.203 1323.82C373.214 1323.62 375.236 1324.06 376.984 1325.07C378.732 1326.08 380.119 1327.62 380.948 1329.46C381.777 1331.31 382.007 1333.36 381.606 1335.34V1335.97L351.298 1353.58ZM372.822 1326.41C370.798 1326.49 368.831 1327.1 367.128 1328.2C363.481 1330.57 360.393 1333.71 358.077 1337.39C355.761 1341.07 354.271 1345.22 353.711 1349.53L379.482 1334.67C379.571 1333.22 379.29 1331.77 378.665 1330.46C378.04 1329.16 377.092 1328.03 375.911 1327.19C374.997 1326.56 373.927 1326.21 372.822 1326.17V1326.41Z" fill="#E0E0E0"/>
<path d="M404.529 1347.65C404.235 1347.65 403.952 1347.53 403.744 1347.32C403.536 1347.11 403.419 1346.83 403.419 1346.54V1313.62C403.384 1313.46 403.387 1313.28 403.428 1313.11C403.469 1312.95 403.546 1312.79 403.655 1312.66C403.764 1312.52 403.901 1312.42 404.056 1312.34C404.211 1312.27 404.381 1312.23 404.553 1312.23C404.725 1312.23 404.895 1312.27 405.051 1312.34C405.206 1312.42 405.343 1312.52 405.452 1312.66C405.56 1312.79 405.638 1312.95 405.679 1313.11C405.719 1313.28 405.722 1313.46 405.687 1313.62V1346.54C405.688 1346.69 405.657 1346.84 405.599 1346.97C405.54 1347.11 405.454 1347.24 405.345 1347.34C405.237 1347.44 405.109 1347.53 404.969 1347.58C404.828 1347.63 404.679 1347.65 404.529 1347.65Z" fill="#E0E0E0"/>
<path d="M401.199 1322.5C401.041 1322.55 400.875 1322.55 400.717 1322.5C400.578 1322.45 400.453 1322.36 400.348 1322.25C400.244 1322.15 400.162 1322.02 400.108 1321.88C400.053 1321.74 400.028 1321.59 400.033 1321.44C400.039 1321.29 400.074 1321.14 400.138 1321.01L404.24 1311.36L408.776 1316.62C408.98 1316.83 409.093 1317.12 409.093 1317.41C409.093 1317.71 408.98 1317.99 408.776 1318.21C408.669 1318.32 408.541 1318.4 408.4 1318.46C408.259 1318.52 408.108 1318.55 407.956 1318.55C407.803 1318.55 407.652 1318.52 407.512 1318.46C407.371 1318.4 407.243 1318.32 407.135 1318.21L404.964 1315.7L402.358 1321.78C402.266 1322.01 402.105 1322.2 401.897 1322.33C401.688 1322.46 401.444 1322.52 401.199 1322.5Z" fill="#E0E0E0"/>
<path d="M415.147 1341.62C414.839 1341.62 414.545 1341.49 414.328 1341.28C414.11 1341.06 413.988 1340.76 413.988 1340.46V1307.59C413.988 1307.29 414.11 1306.99 414.328 1306.77C414.545 1306.56 414.839 1306.43 415.147 1306.43C415.454 1306.43 415.748 1306.56 415.966 1306.77C416.183 1306.99 416.305 1307.29 416.305 1307.59V1340.46C416.305 1340.76 416.183 1341.06 415.966 1341.28C415.748 1341.49 415.454 1341.62 415.147 1341.62Z" fill="#E0E0E0"/>
<path d="M411.72 1316.47H411.238C411.099 1316.41 410.974 1316.33 410.869 1316.22C410.765 1316.11 410.683 1315.99 410.629 1315.85C410.574 1315.71 410.549 1315.56 410.554 1315.41C410.56 1315.26 410.595 1315.11 410.659 1314.98L414.712 1305.32L419.539 1310.54C419.745 1310.76 419.86 1311.05 419.86 1311.36C419.86 1311.66 419.745 1311.95 419.539 1312.18C419.318 1312.37 419.035 1312.48 418.742 1312.48C418.449 1312.48 418.166 1312.37 417.946 1312.18L415.774 1309.67L413.12 1315.75C413.082 1315.89 413.015 1316.03 412.922 1316.14C412.829 1316.26 412.713 1316.35 412.581 1316.42C412.449 1316.49 412.304 1316.53 412.156 1316.54C412.008 1316.55 411.859 1316.52 411.72 1316.47Z" fill="#E0E0E0"/>
<path d="M330.064 1411.06L106.522 1282.01V1109.92L330.064 1238.97V1411.06Z" fill="#E0E0E0"/>
<path d="M209.848 1341.66L226.691 1351.41V1179.32L209.848 1169.57V1341.66Z" fill="#EBEBEB"/>
<path d="M457.857 1197.46L425.764 1215.95C422.558 1217.78 419.815 1220.33 417.748 1223.39C415.682 1226.45 414.346 1229.95 413.844 1233.61C413.844 1239.55 419.201 1241.28 425.764 1237.47L457.857 1218.99C461.055 1217.15 463.787 1214.6 465.846 1211.53C467.904 1208.47 469.232 1204.98 469.729 1201.32C469.633 1195.39 464.42 1193.65 457.857 1197.46Z" fill="#E0E0E0"/>
<path d="M226.691 1179.32L450.232 1050.27L433.389 1040.52L209.848 1169.57L226.691 1179.32Z" fill="#FAFAFA"/>
<path d="M433.389 1179.32L209.848 1050.27L226.691 1040.52L450.232 1169.57L433.389 1179.32Z" fill="#FAFAFA"/>
<g style="mix-blend-mode:multiply" opacity="0.8">
<path d="M116.271 1104.27L330.595 1227.87L544.194 1104.56L330.064 980.87L116.271 1104.27Z" fill="#E0E0E0"/>
</g>
<path d="M433.389 1196.59V1179.32L450.232 1169.57V1186.85L433.389 1196.59Z" fill="#F0F0F0"/>
<path d="M543.519 916.346L319.977 787.299L96.436 916.346L319.977 1045.39L543.519 916.346Z" fill="#F0F0F0"/>
<g style="mix-blend-mode:multiply" opacity="0.8">
<path d="M115.451 918.325L327.747 1040.91L543.519 916.346L331.222 793.766L115.451 918.325Z" fill="#E0E0E0"/>
</g>
<path d="M319.978 1217.49L543.519 1088.39V916.346L319.978 1045.39V1217.49Z" fill="#EBEBEB"/>
<path d="M353.326 1177.58C352.887 1177.56 352.457 1177.45 352.071 1177.24C351.618 1176.95 351.254 1176.54 351.016 1176.05C350.778 1175.57 350.676 1175.03 350.719 1174.49V1171.35C350.685 1171.19 350.688 1171.01 350.728 1170.84C350.769 1170.68 350.847 1170.52 350.955 1170.39C351.064 1170.25 351.201 1170.15 351.356 1170.07C351.512 1170 351.682 1169.96 351.854 1169.96C352.026 1169.96 352.196 1170 352.351 1170.07C352.506 1170.15 352.643 1170.25 352.752 1170.39C352.861 1170.52 352.938 1170.68 352.979 1170.84C353.02 1171.01 353.023 1171.19 352.988 1171.35V1174.49C352.988 1174.97 352.988 1175.21 352.988 1175.26C352.988 1175.31 353.326 1175.26 353.712 1175.02C354.418 1174.37 354.974 1173.56 355.341 1172.67C355.707 1171.78 355.876 1170.82 355.835 1169.86V1149.49C355.835 1149.18 355.957 1148.89 356.174 1148.67C356.391 1148.46 356.686 1148.33 356.993 1148.33C357.3 1148.33 357.595 1148.46 357.812 1148.67C358.029 1148.89 358.152 1149.18 358.152 1149.49V1169.86C358.212 1171.22 357.946 1172.58 357.376 1173.83C356.805 1175.07 355.946 1176.16 354.87 1177C354.413 1177.32 353.881 1177.52 353.326 1177.58Z" fill="#E0E0E0"/>
<path d="M341.26 1159.72V1157.74C341.519 1152.68 342.963 1147.74 345.478 1143.33C347.993 1138.92 351.507 1135.16 355.738 1132.36C357.256 1131.05 359.143 1130.25 361.137 1130.06C363.131 1129.87 365.134 1130.31 366.868 1131.32C368.603 1132.32 369.982 1133.83 370.815 1135.66C371.649 1137.48 371.895 1139.51 371.519 1141.48V1142.16L341.26 1159.72ZM362.784 1132.55C360.75 1132.66 358.775 1133.27 357.041 1134.34C353.407 1136.73 350.331 1139.88 348.024 1143.57C345.717 1147.26 344.233 1151.4 343.673 1155.72L369.444 1140.85C369.537 1139.41 369.258 1137.96 368.633 1136.65C368.008 1135.34 367.058 1134.21 365.873 1133.37C364.936 1132.83 363.869 1132.54 362.784 1132.55Z" fill="#E0E0E0"/>
<path d="M394.491 1154.08C394.184 1154.08 393.889 1153.95 393.672 1153.74C393.455 1153.52 393.333 1153.23 393.333 1152.92V1120.05C393.333 1119.75 393.455 1119.45 393.672 1119.23C393.889 1119.02 394.184 1118.89 394.491 1118.89C394.798 1118.89 395.093 1119.02 395.31 1119.23C395.527 1119.45 395.649 1119.75 395.649 1120.05V1152.92C395.649 1153.23 395.527 1153.52 395.31 1153.74C395.093 1153.95 394.798 1154.08 394.491 1154.08Z" fill="#E0E0E0"/>
<path d="M391.161 1128.93H390.679C390.54 1128.88 390.415 1128.79 390.31 1128.68C390.205 1128.58 390.124 1128.45 390.069 1128.31C390.015 1128.17 389.99 1128.02 389.995 1127.87C390 1127.72 390.036 1127.57 390.1 1127.44L394.153 1118.03L398.979 1123.24C399.186 1123.46 399.301 1123.75 399.301 1124.06C399.301 1124.36 399.186 1124.66 398.979 1124.88C398.759 1125.07 398.476 1125.18 398.183 1125.18C397.89 1125.18 397.607 1125.07 397.387 1124.88L395.215 1122.37L392.561 1128.45C392.428 1128.69 392.211 1128.87 391.953 1128.96C391.695 1129.05 391.413 1129.04 391.161 1128.93Z" fill="#E0E0E0"/>
<path d="M405.108 1148.04C404.801 1148.04 404.507 1147.92 404.289 1147.7C404.072 1147.49 403.95 1147.19 403.95 1146.89V1113.97C403.95 1113.67 404.072 1113.37 404.289 1113.15C404.507 1112.94 404.801 1112.81 405.108 1112.81C405.416 1112.81 405.71 1112.94 405.927 1113.15C406.145 1113.37 406.267 1113.67 406.267 1113.97V1146.89C406.267 1147.19 406.145 1147.49 405.927 1147.7C405.71 1147.92 405.416 1148.04 405.108 1148.04Z" fill="#E0E0E0"/>
<path d="M401.73 1122.9H401.296C401.013 1122.77 400.79 1122.54 400.673 1122.25C400.556 1121.97 400.554 1121.64 400.669 1121.36L404.771 1111.95L409.307 1117.21C409.415 1117.31 409.501 1117.44 409.559 1117.58C409.618 1117.72 409.648 1117.87 409.648 1118.03C409.648 1118.18 409.618 1118.33 409.559 1118.47C409.501 1118.61 409.415 1118.74 409.307 1118.85C409.084 1119.05 408.791 1119.17 408.487 1119.17C408.182 1119.17 407.889 1119.05 407.666 1118.85L405.543 1116.34L402.889 1122.42C402.758 1122.6 402.581 1122.74 402.377 1122.82C402.173 1122.91 401.949 1122.93 401.73 1122.9Z" fill="#E0E0E0"/>
<path d="M319.977 1217.49L96.436 1088.39V916.346L319.977 1045.39V1217.49Z" fill="#E0E0E0"/>
<path d="M199.81 1148.09L216.652 1157.79V985.745L199.81 975.996V1148.09Z" fill="#EBEBEB"/>
<path d="M447.771 1003.89L415.726 1022.37C412.519 1024.21 409.777 1026.76 407.71 1029.82C405.644 1032.88 404.308 1036.38 403.806 1040.04C403.806 1045.97 409.163 1047.71 415.726 1043.9L447.771 1025.37C450.993 1023.56 453.749 1021.03 455.818 1017.97C457.888 1014.91 459.214 1011.41 459.691 1007.75C459.691 1001.82 454.382 1000.08 447.771 1003.89Z" fill="#E0E0E0"/>
<path d="M216.652 985.745L440.194 856.697L423.351 846.948L199.81 975.996L216.652 985.745Z" fill="#FAFAFA"/>
<path d="M423.351 985.745L199.81 856.697L216.652 846.948L440.194 975.996L423.351 985.745Z" fill="#FAFAFA"/>
<path d="M423.351 1003.02V985.745L440.194 975.996V993.273L423.351 1003.02Z" fill="#F0F0F0"/>
<g style="mix-blend-mode:multiply" opacity="0.8">
<path d="M327.748 1040.91L347.872 1052.54L543.519 939.56V916.346L327.748 1040.91Z" fill="#E0E0E0"/>
</g>
<path d="M565.912 744.251L342.418 615.203L118.877 744.251L342.418 873.298L565.912 744.251Z" fill="#F0F0F0"/>
<path d="M342.418 1045.39L565.912 916.346V744.25L342.418 873.298V1045.39Z" fill="#EBEBEB"/>
<path d="M375.718 1005.48C375.291 1005.5 374.87 1005.38 374.512 1005.15C374.047 1004.86 373.67 1004.45 373.423 1003.97C373.176 1003.48 373.068 1002.94 373.112 1002.39V999.258C373.112 998.95 373.234 998.656 373.451 998.439C373.669 998.221 373.963 998.099 374.27 998.099C374.578 998.099 374.872 998.221 375.089 998.439C375.307 998.656 375.429 998.95 375.429 999.258V1002.39C375.429 1002.88 375.429 1003.12 375.429 1003.17C375.429 1003.21 375.767 1003.17 376.201 1003.17C376.907 1002.51 377.463 1001.71 377.83 1000.82C378.197 999.926 378.365 998.966 378.324 998.003V977.637C378.289 977.469 378.292 977.294 378.333 977.127C378.374 976.96 378.452 976.804 378.56 976.671C378.669 976.537 378.806 976.43 378.961 976.356C379.116 976.282 379.286 976.244 379.458 976.244C379.631 976.244 379.8 976.282 379.956 976.356C380.111 976.43 380.248 976.537 380.357 976.671C380.465 976.804 380.543 976.96 380.584 977.127C380.624 977.294 380.628 977.469 380.593 977.637V998.003C380.644 999.362 380.378 1000.72 379.817 1001.95C379.256 1003.19 378.414 1004.29 377.359 1005.15C376.843 1005.37 376.283 1005.49 375.718 1005.48Z" fill="#E0E0E0"/>
<path d="M363.46 987.675V985.696C363.722 980.622 365.168 975.679 367.682 971.263C370.196 966.846 373.708 963.08 377.938 960.263C379.456 958.93 381.354 958.107 383.365 957.909C385.376 957.712 387.398 958.15 389.146 959.163C390.894 960.176 392.28 961.712 393.11 963.554C393.939 965.396 394.169 967.453 393.767 969.433V970.06L363.46 987.675ZM384.984 960.505C382.96 960.578 380.993 961.195 379.289 962.29C375.649 964.671 372.566 967.809 370.251 971.49C367.935 975.172 366.442 979.31 365.873 983.621L391.644 968.757C391.729 967.315 391.451 965.875 390.836 964.568C390.22 963.261 389.287 962.13 388.121 961.277C387.219 960.778 386.207 960.512 385.177 960.505H384.984Z" fill="#E0E0E0"/>
<path d="M416.884 981.98C416.734 981.981 416.586 981.95 416.448 981.891C416.31 981.833 416.185 981.747 416.082 981.638C415.978 981.53 415.897 981.402 415.844 981.262C415.792 981.121 415.768 980.972 415.774 980.822V948.198C415.739 948.03 415.742 947.856 415.783 947.688C415.824 947.521 415.901 947.365 416.01 947.232C416.119 947.098 416.256 946.991 416.411 946.917C416.566 946.843 416.736 946.805 416.908 946.805C417.08 946.805 417.25 946.843 417.406 946.917C417.561 946.991 417.698 947.098 417.807 947.232C417.915 947.365 417.993 947.521 418.033 947.688C418.074 947.856 418.077 948.03 418.042 948.198V981.112C417.977 981.367 417.826 981.591 417.616 981.749C417.405 981.907 417.147 981.989 416.884 981.98Z" fill="#E0E0E0"/>
<path d="M413.554 956.837C413.413 956.881 413.261 956.881 413.12 956.837C412.977 956.784 412.847 956.703 412.737 956.597C412.627 956.492 412.54 956.365 412.481 956.225C412.423 956.085 412.393 955.934 412.395 955.782C412.397 955.63 412.43 955.48 412.493 955.341L416.595 945.689L421.131 950.949C421.238 951.053 421.322 951.176 421.38 951.313C421.438 951.45 421.468 951.597 421.468 951.745C421.468 951.894 421.438 952.041 421.38 952.178C421.322 952.314 421.238 952.438 421.131 952.542C421.024 952.65 420.896 952.735 420.755 952.794C420.614 952.852 420.463 952.882 420.311 952.882C420.158 952.882 420.007 952.852 419.867 952.794C419.726 952.735 419.598 952.65 419.49 952.542L417.319 950.032L414.713 956.113C414.621 956.341 414.46 956.534 414.251 956.664C414.043 956.794 413.799 956.854 413.554 956.837Z" fill="#E0E0E0"/>
<path d="M427.501 975.948C427.351 975.954 427.202 975.931 427.061 975.878C426.921 975.825 426.793 975.744 426.685 975.64C426.577 975.537 426.49 975.412 426.432 975.274C426.373 975.136 426.343 974.988 426.343 974.838V941.924C426.343 941.617 426.465 941.323 426.682 941.105C426.899 940.888 427.194 940.766 427.501 940.766C427.808 940.766 428.103 940.888 428.32 941.105C428.537 941.323 428.659 941.617 428.659 941.924V974.838C428.659 974.988 428.629 975.136 428.57 975.274C428.512 975.412 428.426 975.537 428.317 975.64C428.209 975.744 428.081 975.825 427.941 975.878C427.8 975.931 427.651 975.954 427.501 975.948Z" fill="#E0E0E0"/>
<path d="M424.172 950.804H423.689C423.551 950.747 423.425 950.662 423.32 950.554C423.216 950.447 423.134 950.32 423.08 950.18C423.026 950.04 423 949.891 423.006 949.741C423.011 949.591 423.046 949.444 423.11 949.308L427.164 939.656L431.99 944.868C432.197 945.091 432.312 945.384 432.312 945.689C432.312 945.993 432.197 946.286 431.99 946.509C431.886 946.616 431.762 946.7 431.626 946.758C431.489 946.816 431.342 946.846 431.193 946.846C431.045 946.846 430.898 946.816 430.761 946.758C430.624 946.7 430.501 946.616 430.397 946.509L428.225 944L425.571 950.08C425.533 950.224 425.466 950.358 425.373 950.474C425.28 950.59 425.164 950.685 425.032 950.753C424.9 950.821 424.755 950.861 424.607 950.87C424.459 950.879 424.311 950.856 424.172 950.804Z" fill="#E0E0E0"/>
<path d="M342.418 1045.39L118.877 916.346V744.25L342.418 873.298V1045.39Z" fill="#E0E0E0"/>
<path d="M222.202 975.996L239.045 985.745V813.649L222.202 803.9V975.996Z" fill="#EBEBEB"/>
<path d="M470.212 831.795L438.119 850.326C434.908 852.139 432.164 854.675 430.103 857.732C428.042 860.79 426.722 864.285 426.247 867.941C426.247 873.877 431.555 875.615 438.119 871.802L470.212 853.319C473.418 851.483 476.16 848.936 478.227 845.874C480.294 842.812 481.63 839.316 482.132 835.655C482.132 829.719 476.775 827.982 470.212 831.795Z" fill="#E0E0E0"/>
<path d="M239.045 813.649L462.586 684.601L445.744 674.852L222.202 803.9L239.045 813.649Z" fill="#FAFAFA"/>
<path d="M445.744 813.649L222.202 684.601L239.045 674.852L462.586 803.9L445.744 813.649Z" fill="#FAFAFA"/>
<path d="M445.744 830.926V813.649L462.586 803.9V821.177L445.744 830.926Z" fill="#F0F0F0"/>
<path d="M656.496 1378.2V1302.72C652.902 1274.97 641.144 1248.92 622.714 1227.87C592.889 1195.58 566.153 1206.54 557.466 1221.88C548.779 1237.23 568.566 1266.28 581.21 1282.69C596.412 1302.38 656.4 1393.69 656.4 1434.85L656.496 1378.2Z" fill="#37474F"/>
<path d="M656.496 1366.28C656.059 1366.27 655.636 1366.12 655.302 1365.83C654.967 1365.55 654.741 1365.16 654.662 1364.73C641.053 1282.45 578.411 1225.98 577.784 1225.41C577.448 1225.05 577.26 1224.59 577.26 1224.1C577.26 1223.62 577.448 1223.15 577.784 1222.8C577.954 1222.63 578.157 1222.49 578.381 1222.4C578.605 1222.3 578.844 1222.26 579.087 1222.26C579.329 1222.26 579.569 1222.3 579.793 1222.4C580.016 1222.49 580.219 1222.63 580.39 1222.8C581.065 1223.33 644.624 1280.71 658.475 1364.25C658.545 1364.74 658.423 1365.23 658.134 1365.63C657.846 1366.02 657.414 1366.29 656.931 1366.37L656.496 1366.28Z" fill="#FAFAFA"/>
<path d="M656.496 1378.2C656.496 1378.2 659.488 1369.12 646.12 1366.81C632.752 1364.49 627.637 1353.39 626.43 1334.76C625.224 1316.13 619.529 1302.77 602.782 1300.02C586.036 1297.26 572.572 1305.71 561.713 1297.31C550.855 1288.92 522.719 1268.69 499.264 1278.01C475.81 1287.32 483.531 1307.25 495.741 1320.19C507.951 1333.12 511.426 1337.56 502.112 1358.8C492.797 1380.03 499.554 1399.62 521.126 1404.55C542.699 1409.47 554.908 1406.96 554.908 1430.56C554.908 1454.16 558.48 1464.73 570.303 1473.99C582.127 1483.26 619.239 1479.11 634.683 1482.68C639.319 1483.88 643.649 1486.04 647.385 1489.04C651.121 1492.03 654.177 1495.79 656.351 1500.05L656.496 1378.2Z" fill="#455A64"/>
<path d="M656.496 1475.54C656.111 1475.54 655.737 1475.42 655.425 1475.19C655.113 1474.97 654.88 1474.65 654.759 1474.28C615.523 1357.88 526.772 1310.83 525.855 1310.2C525.448 1309.95 525.15 1309.56 525.022 1309.1C524.894 1308.64 524.946 1308.14 525.167 1307.72C525.387 1307.3 525.761 1306.97 526.211 1306.82C526.662 1306.66 527.156 1306.68 527.593 1306.87C528.461 1307.35 618.515 1355.13 658.233 1472.93C658.316 1473.16 658.351 1473.4 658.337 1473.64C658.323 1473.89 658.26 1474.12 658.152 1474.34C658.043 1474.56 657.892 1474.75 657.707 1474.9C657.522 1475.06 657.307 1475.18 657.075 1475.25C656.912 1475.4 656.712 1475.5 656.496 1475.54Z" fill="#FAFAFA"/>
<path d="M600.224 1374.05H599.935C574.309 1368.21 533.336 1371.39 532.901 1371.39C532.661 1371.41 532.418 1371.38 532.188 1371.31C531.958 1371.24 531.745 1371.12 531.561 1370.96C531.377 1370.8 531.226 1370.61 531.116 1370.39C531.007 1370.18 530.941 1369.94 530.923 1369.7C530.896 1369.46 530.919 1369.22 530.991 1368.98C531.063 1368.75 531.181 1368.53 531.34 1368.35C531.498 1368.16 531.692 1368.01 531.911 1367.91C532.13 1367.8 532.368 1367.74 532.612 1367.72C534.349 1367.72 574.598 1364.49 600.755 1370.48C601.195 1370.58 601.581 1370.84 601.84 1371.21C602.099 1371.58 602.212 1372.03 602.159 1372.48C602.105 1372.93 601.888 1373.34 601.549 1373.64C601.209 1373.94 600.772 1374.1 600.321 1374.09L600.224 1374.05Z" fill="#FAFAFA"/>
<path d="M621.121 1430.03C609.394 1430.03 596.991 1429.26 596.219 1429.21C595.728 1429.17 595.272 1428.94 594.947 1428.57C594.622 1428.2 594.455 1427.72 594.482 1427.23C594.494 1426.98 594.555 1426.74 594.662 1426.52C594.769 1426.3 594.919 1426.1 595.103 1425.94C595.288 1425.78 595.503 1425.66 595.736 1425.58C595.969 1425.5 596.216 1425.47 596.46 1425.49C609.796 1426.43 623.181 1426.43 636.516 1425.49C636.996 1425.42 637.484 1425.55 637.873 1425.84C638.262 1426.13 638.52 1426.56 638.592 1427.04C638.633 1427.28 638.625 1427.52 638.57 1427.76C638.514 1428 638.411 1428.23 638.267 1428.42C638.123 1428.62 637.941 1428.79 637.732 1428.92C637.522 1429.04 637.289 1429.12 637.047 1429.16C631.765 1429.82 626.444 1430.11 621.121 1430.03Z" fill="#FAFAFA"/>
<path d="M588.208 1360.39C587.717 1360.35 587.26 1360.12 586.936 1359.75C586.611 1359.38 586.444 1358.9 586.471 1358.41C587.353 1345.09 590.132 1331.96 594.723 1319.42C594.905 1318.97 595.255 1318.61 595.698 1318.43C596.14 1318.24 596.639 1318.23 597.088 1318.4C597.317 1318.48 597.527 1318.61 597.706 1318.77C597.884 1318.94 598.028 1319.14 598.127 1319.36C598.226 1319.58 598.28 1319.82 598.284 1320.06C598.287 1320.3 598.242 1320.54 598.15 1320.77C593.755 1332.97 591.059 1345.72 590.138 1358.65C590.126 1358.89 590.066 1359.13 589.962 1359.35C589.859 1359.56 589.713 1359.76 589.534 1359.92C589.354 1360.08 589.145 1360.21 588.917 1360.29C588.69 1360.37 588.449 1360.4 588.208 1360.39Z" fill="#FAFAFA"/>
<path d="M655.917 631.418V1508.02C655.917 1516.03 661.515 1519.26 668.465 1515.26L1721.6 907.177C1725.23 904.789 1728.25 901.578 1730.42 897.805C1732.58 894.032 1733.83 889.803 1734.05 885.46V8.95755C1734.05 0.94635 1728.45 -2.28709 1721.55 1.71851L668.416 609.797C664.786 612.171 661.763 615.364 659.592 619.119C657.421 622.875 656.162 627.087 655.917 631.418Z" fill="#3155E7"/>
<path d="M1721.6 1.71851L668.465 609.797C664.812 612.175 661.772 615.381 659.592 619.155C657.412 622.928 656.153 627.163 655.917 631.515V686.338L1734.05 62.3816V8.95755C1734.05 0.94635 1728.5 -2.28709 1721.6 1.71851Z" fill="#263238"/>
<path d="M1587.1 99.0594C1583.51 101.399 1580.52 104.556 1578.38 108.272C1576.24 111.988 1575.01 116.157 1574.79 120.439C1574.79 128.305 1580.29 131.49 1587.15 127.581C1590.74 125.225 1593.73 122.059 1595.87 118.337C1598.02 114.616 1599.26 110.443 1599.5 106.154C1599.45 98.2872 1594.1 95.1021 1587.1 99.0594Z" fill="white"/>
<path d="M1636.08 70.7306C1632.49 73.0766 1629.5 76.2338 1627.36 79.9475C1625.21 83.6612 1623.97 87.8274 1623.73 92.1099C1623.73 100.025 1629.28 103.21 1636.08 99.2524C1639.68 96.9179 1642.68 93.7634 1644.83 90.0473C1646.98 86.3312 1648.21 82.1593 1648.44 77.8732C1648.44 69.862 1642.94 66.8216 1636.08 70.7306Z" fill="white"/>
<path d="M1685.11 42.4501C1681.52 44.7961 1678.53 47.9533 1676.39 51.667C1674.24 55.3807 1673 59.5469 1672.76 63.8294C1672.76 71.6958 1678.31 74.9293 1685.11 70.9719C1688.71 68.626 1691.69 65.4688 1693.84 61.7551C1695.99 58.0414 1697.23 53.8752 1697.47 49.5927C1697.47 41.678 1691.92 38.4928 1685.11 42.4501Z" fill="white"/>
<path d="M994.173 608.35V868.955L768.556 999.258V738.652L994.173 608.35ZM998.999 600.001L763.73 735.853V1007.51L998.999 871.658V600.001Z" fill="#FAFAFA"/>
<path d="M1075.01 830.54V553.333L1315.06 414.73V691.936L1075.01 830.54ZM1079.83 556.132V822.191L1310.23 689.137V423.079L1079.83 556.132Z" fill="#FAFAFA"/>
<path d="M1225.39 551.547L1238.03 524.232C1224.04 522.257 1209.8 525.154 1197.69 532.436V557.29C1206.05 552.42 1215.78 550.404 1225.39 551.547Z" fill="#3155E7"/>
<path d="M1246.62 570.031L1267.08 550.727C1265.12 544.907 1261.84 539.613 1257.52 535.247C1253.2 530.882 1247.93 527.56 1242.13 525.535L1229.54 552.85C1233.46 554.31 1237.01 556.602 1239.96 559.568C1242.91 562.534 1245.18 566.103 1246.62 570.031Z" fill="#3155E7"/>
<path d="M1164.58 693.722L1151.98 720.989C1165.95 723.054 1180.2 720.187 1192.28 712.881V688.076C1183.93 692.967 1174.18 694.952 1164.58 693.722Z" fill="#3155E7"/>
<path d="M1229.73 652.508L1242.33 665.248C1253.53 648.725 1261.96 630.484 1267.28 611.245L1246.62 615.203C1242.97 628.443 1237.27 641.03 1229.73 652.508Z" fill="#3155E7"/>
<path d="M1197.69 684.987V709.793C1213.44 699.586 1227.11 686.485 1237.98 671.185L1225.39 658.637C1217.81 669.007 1208.42 677.932 1197.69 684.987Z" fill="#3155E7"/>
<path d="M1268.92 555.505L1248.5 574.809C1249.86 579.91 1250.52 585.168 1250.48 590.445C1250.43 596.481 1249.77 602.496 1248.5 608.398L1268.92 604.296C1270.84 595.692 1271.85 586.907 1271.91 578.091C1271.98 570.459 1270.97 562.856 1268.92 555.505Z" fill="#3155E7"/>
<g opacity="0.2">
<path d="M1225.39 551.547L1238.03 524.232C1224.04 522.257 1209.8 525.154 1197.69 532.436V557.29C1206.05 552.42 1215.78 550.404 1225.39 551.547Z" fill="black"/>
<path d="M1246.62 570.031L1267.09 550.727C1265.12 544.907 1261.85 539.613 1257.52 535.247C1253.2 530.882 1247.94 527.56 1242.13 525.535L1229.54 552.85C1233.46 554.31 1237.01 556.602 1239.96 559.568C1242.91 562.534 1245.18 566.103 1246.62 570.031Z" fill="black"/>
<path d="M1164.58 693.722L1151.98 720.989C1165.95 723.054 1180.2 720.187 1192.28 712.881V688.076C1183.93 692.967 1174.18 694.952 1164.58 693.722Z" fill="black"/>
<path d="M1229.73 652.508L1242.33 665.249C1253.53 648.725 1261.96 630.484 1267.28 611.245L1246.62 615.203C1242.97 628.443 1237.27 641.03 1229.73 652.508Z" fill="black"/>
<path d="M1197.69 684.987V709.793C1213.44 699.586 1227.11 686.485 1237.98 671.185L1225.39 658.637C1217.81 669.007 1208.42 677.932 1197.69 684.987Z" fill="black"/>
<path d="M1268.92 555.505L1248.5 574.809C1249.86 579.91 1250.52 585.168 1250.48 590.445C1250.43 596.481 1249.77 602.496 1248.5 608.398L1268.92 604.296C1270.84 595.692 1271.85 586.907 1271.91 578.091C1271.98 570.459 1270.97 562.856 1268.92 555.505Z" fill="black"/>
</g>
<path d="M1192.33 560.282V535.477C1176.57 545.67 1162.89 558.773 1152.03 574.085L1164.63 586.826C1172.18 576.373 1181.56 567.38 1192.33 560.282Z" fill="#FAFAFA"/>
<path d="M1160.33 592.762L1147.74 580.021C1136.52 596.515 1128.09 614.743 1122.79 633.976L1143.2 629.874C1146.93 616.68 1152.71 604.156 1160.33 592.762Z" fill="#FAFAFA"/>
<path d="M1139.53 654.631C1139.6 648.594 1140.28 642.579 1141.56 636.678L1121.15 640.829C1119.22 649.417 1118.22 658.185 1118.15 666.986C1118.08 674.682 1119.09 682.35 1121.15 689.765L1141.56 670.461C1140.18 665.299 1139.5 659.975 1139.53 654.631Z" fill="#FAFAFA"/>
<path d="M1143.2 675.238L1122.79 694.542C1124.75 700.361 1128.02 705.652 1132.34 710.011C1136.67 714.369 1141.93 717.679 1147.74 719.686L1160.33 692.419C1156.4 690.965 1152.84 688.676 1149.88 685.71C1146.92 682.744 1144.64 679.171 1143.2 675.238Z" fill="#FAFAFA"/>
<path d="M1149.14 648.985C1149.14 619.691 1169.7 584.123 1195.03 569.5C1220.37 554.877 1240.93 566.701 1240.93 595.995C1240.93 625.289 1220.37 660.857 1195.03 675.48C1169.7 690.103 1149.14 678.375 1149.14 648.985Z" fill="#3155E7"/>
<path opacity="0.2" d="M1149.14 648.985C1149.14 619.691 1169.7 584.123 1195.03 569.5C1220.37 554.877 1240.93 566.701 1240.93 595.995C1240.93 625.289 1220.37 660.857 1195.03 675.48C1169.7 690.103 1149.14 678.375 1149.14 648.985Z" fill="black"/>
<path d="M1190.5 607.529C1190.59 609.41 1190.59 611.295 1190.5 613.176C1190.41 614.728 1190.15 616.265 1189.72 617.76C1189.31 619.323 1188.68 620.819 1187.84 622.2C1186.05 625.296 1183.47 627.86 1180.36 629.632C1179.02 630.478 1177.53 631.052 1175.97 631.322C1174.92 631.532 1173.82 631.361 1172.88 630.839C1172.03 630.298 1171.37 629.505 1171 628.571C1170.54 627.4 1170.28 626.16 1170.23 624.903C1170.23 623.938 1170.23 623.021 1170.23 622.152C1170.23 621.283 1170.23 620.318 1170.23 619.208C1170.31 617.576 1170.56 615.958 1171 614.382C1171.44 612.846 1172.07 611.371 1172.88 609.99C1173.73 608.498 1174.77 607.12 1175.97 605.888C1177.28 604.587 1178.75 603.467 1180.36 602.558C1181.71 601.714 1183.19 601.125 1184.75 600.821C1185.81 600.65 1186.9 600.836 1187.84 601.352C1188.69 601.893 1189.35 602.686 1189.72 603.62C1190.19 604.874 1190.45 606.193 1190.5 607.529ZM1206.61 589.432C1206.86 588.868 1207.17 588.334 1207.53 587.839C1207.91 587.358 1208.39 586.963 1208.93 586.681L1214.24 583.64C1214.39 583.508 1214.57 583.417 1214.76 583.374C1214.96 583.332 1215.16 583.341 1215.35 583.399C1215.64 583.399 1215.78 583.785 1215.78 584.22C1215.8 584.348 1215.8 584.477 1215.78 584.606C1215.8 584.798 1215.8 584.992 1215.78 585.185L1183.88 652.025C1183.61 652.569 1183.29 653.086 1182.92 653.569C1182.55 654.053 1182.09 654.463 1181.57 654.776L1176.26 657.816C1176.09 657.898 1175.9 657.94 1175.7 657.94C1175.51 657.94 1175.32 657.898 1175.15 657.816C1174.86 657.816 1174.71 657.43 1174.71 656.996C1174.71 656.562 1174.71 656.755 1174.71 656.562C1174.71 656.369 1174.71 656.224 1174.71 656.031L1206.61 589.432ZM1177.66 620.173C1177.64 621.072 1177.88 621.958 1178.33 622.731C1178.67 623.166 1179.35 623.069 1180.31 622.731C1181.17 622.269 1181.84 621.54 1182.24 620.656C1182.67 619.595 1182.92 618.469 1182.97 617.326C1183.06 615.719 1183.06 614.107 1182.97 612.5C1182.98 611.611 1182.73 610.738 1182.24 609.99C1181.91 609.556 1181.23 609.604 1180.31 609.99C1179.44 610.435 1178.74 611.168 1178.33 612.066C1177.92 613.13 1177.69 614.256 1177.66 615.396C1177.54 616.939 1177.56 618.488 1177.71 620.029L1177.66 620.173ZM1220.37 616.313C1220.47 618.21 1220.47 620.11 1220.37 622.007C1220.27 623.539 1220.03 625.057 1219.64 626.544C1218.79 629.742 1217.13 632.667 1214.82 635.038C1213.53 636.369 1212.05 637.507 1210.43 638.416C1209.09 639.262 1207.6 639.836 1206.04 640.105C1204.98 640.338 1203.88 640.165 1202.95 639.622C1202.1 639.081 1201.44 638.288 1201.06 637.354C1200.6 636.184 1200.34 634.944 1200.29 633.686C1200.29 632.721 1200.29 631.804 1200.29 630.984C1200.29 630.163 1200.29 629.102 1200.29 627.992C1200.38 626.456 1200.64 624.935 1201.06 623.455C1201.51 621.904 1202.14 620.413 1202.95 619.015C1203.79 617.53 1204.83 616.166 1206.04 614.961C1207.33 613.63 1208.81 612.492 1210.43 611.583C1211.77 610.737 1213.26 610.163 1214.82 609.894C1215.87 609.661 1216.98 609.833 1217.91 610.377C1218.76 610.918 1219.41 611.711 1219.79 612.645C1220.2 613.824 1220.42 615.063 1220.42 616.313H1220.37ZM1207.58 629.005C1207.58 629.886 1207.82 630.751 1208.26 631.515C1208.64 631.949 1209.27 631.901 1210.23 631.515C1211.1 631.055 1211.8 630.327 1212.21 629.439C1212.6 628.369 1212.83 627.247 1212.89 626.109C1212.98 624.502 1212.98 622.891 1212.89 621.283C1212.89 620.402 1212.65 619.537 1212.21 618.774C1211.83 618.34 1211.2 618.388 1210.23 618.774C1209.37 619.234 1208.67 619.962 1208.26 620.849C1207.87 621.92 1207.64 623.042 1207.58 624.179C1207.46 625.786 1207.47 627.401 1207.63 629.005H1207.58Z" fill="#FAFAFA"/>
<path d="M1388.65 649.467V372.212L1628.7 233.609V510.864L1388.65 649.467ZM1393.48 375.011V641.07L1623.87 508.065V242.006L1393.48 375.011Z" fill="#FAFAFA"/>
<path d="M1506.02 379.162V354.597C1490.24 364.786 1476.55 377.889 1465.68 393.206L1478.32 405.995C1485.84 395.434 1495.23 386.34 1506.02 379.162Z" fill="#FAFAFA"/>
<path d="M1473.98 411.689L1461.38 398.949C1450.15 415.437 1441.72 433.667 1436.43 452.903L1456.84 448.753C1460.6 435.586 1466.38 423.083 1473.98 411.689Z" fill="#FAFAFA"/>
<path d="M1539.03 370.475L1551.68 343.111C1537.68 341.136 1523.44 344.033 1511.33 351.316V376.073C1519.7 371.209 1529.43 369.242 1539.03 370.475Z" fill="#3155E7"/>
<path d="M1560.31 388.91L1580.73 369.606C1578.76 363.792 1575.49 358.504 1571.16 354.146C1566.84 349.788 1561.58 346.476 1555.78 344.463L1543.18 371.73C1547.11 373.184 1550.68 375.473 1553.63 378.439C1556.59 381.405 1558.87 384.978 1560.31 388.91Z" fill="#3155E7"/>
<path d="M1478.27 512.601L1465.68 539.917C1477.26 542.281 1491.11 539.917 1506.02 531.761V507.003C1497.64 511.878 1487.89 513.846 1478.27 512.601Z" fill="#3155E7"/>
<path d="M1582.56 374.384L1562.15 393.688C1563.52 398.803 1564.2 404.078 1564.17 409.373C1564.1 415.41 1563.43 421.425 1562.15 427.326L1582.56 423.223C1584.49 414.619 1585.49 405.835 1585.55 397.018C1585.62 389.371 1584.61 381.752 1582.56 374.384Z" fill="#3155E7"/>
<path d="M1543.37 471.387L1555.97 484.128C1567.19 467.634 1575.62 449.405 1580.92 430.173L1560.51 434.323C1556.75 447.49 1550.97 459.994 1543.37 471.387Z" fill="#3155E7"/>
<path d="M1453.18 473.559C1453.24 467.521 1453.92 461.507 1455.2 455.606L1434.79 459.708C1432.87 468.313 1431.86 477.097 1431.8 485.914C1431.72 493.593 1432.73 501.246 1434.79 508.644L1455.2 489.34C1453.83 484.193 1453.15 478.886 1453.18 473.559Z" fill="#3155E7"/>
<path d="M1456.84 494.118L1436.43 513.422C1438.4 519.237 1441.67 524.524 1445.99 528.882C1450.32 533.24 1455.58 536.552 1461.38 538.565L1473.98 511.298C1470.05 509.844 1466.48 507.555 1463.52 504.589C1460.57 501.623 1458.29 498.05 1456.84 494.118Z" fill="#3155E7"/>
<path d="M1511.33 503.915V528.672C1527.09 518.555 1540.78 505.535 1551.68 490.305L1539.08 477.516C1531.49 487.914 1522.09 496.857 1511.33 503.915Z" fill="#3155E7"/>
<g opacity="0.2">
<path d="M1539.03 370.475L1551.68 343.111C1537.68 341.136 1523.44 344.033 1511.33 351.316V376.073C1519.7 371.209 1529.43 369.242 1539.03 370.475Z" fill="black"/>
<path d="M1560.31 388.91L1580.73 369.606C1578.76 363.792 1575.49 358.504 1571.16 354.146C1566.84 349.788 1561.58 346.476 1555.78 344.463L1543.18 371.73C1547.11 373.184 1550.68 375.473 1553.63 378.439C1556.59 381.405 1558.87 384.978 1560.31 388.91Z" fill="black"/>
<path d="M1478.27 512.601L1465.68 539.917C1477.26 542.281 1491.11 539.917 1506.02 531.761V507.003C1497.64 511.878 1487.89 513.846 1478.27 512.601Z" fill="black"/>
<path d="M1582.56 374.384L1562.15 393.688C1563.52 398.803 1564.2 404.078 1564.17 409.373C1564.1 415.41 1563.43 421.425 1562.15 427.326L1582.56 423.223C1584.49 414.619 1585.49 405.835 1585.55 397.018C1585.62 389.371 1584.61 381.752 1582.56 374.384Z" fill="black"/>
<path d="M1543.38 471.387L1555.97 484.128C1567.19 467.634 1575.62 449.405 1580.92 430.173L1560.51 434.323C1556.75 447.49 1550.97 459.994 1543.38 471.387Z" fill="black"/>
<path d="M1453.18 473.559C1453.24 467.521 1453.92 461.506 1455.2 455.606L1434.79 459.708C1432.87 468.313 1431.86 477.097 1431.8 485.913C1431.72 493.593 1432.73 501.246 1434.79 508.644L1455.2 489.34C1453.83 484.193 1453.15 478.886 1453.18 473.559Z" fill="black"/>
<path d="M1456.84 494.118L1436.43 513.422C1438.4 519.236 1441.67 524.524 1445.99 528.882C1450.32 533.24 1455.58 536.552 1461.38 538.565L1473.98 511.298C1470.05 509.844 1466.48 507.555 1463.52 504.589C1460.57 501.623 1458.29 498.05 1456.84 494.118Z" fill="black"/>
<path d="M1511.33 503.915V528.672C1527.09 518.555 1540.78 505.535 1551.68 490.305L1539.08 477.516C1531.49 487.914 1522.09 496.857 1511.33 503.915Z" fill="black"/>
</g>
<path d="M1462.78 468.009C1462.78 438.763 1483.34 403.195 1508.68 388.524C1534.01 373.853 1554.57 385.773 1554.57 415.019C1554.57 444.265 1534.01 480.074 1508.68 494.552C1483.34 509.03 1462.78 497.303 1462.78 468.009Z" fill="#3155E7"/>
<path opacity="0.2" d="M1462.78 468.009C1462.78 438.763 1483.34 403.195 1508.68 388.524C1534.01 373.853 1554.57 385.773 1554.57 415.019C1554.57 444.265 1534.01 480.074 1508.68 494.552C1483.34 509.03 1462.78 497.303 1462.78 468.009Z" fill="black"/>
<path d="M1504.14 426.457C1504.24 428.338 1504.24 430.222 1504.14 432.103C1504.04 433.651 1503.8 435.185 1503.41 436.688C1502.96 438.221 1502.33 439.695 1501.53 441.08C1500.66 442.571 1499.61 443.948 1498.4 445.182C1497.09 446.484 1495.61 447.604 1494 448.512C1492.66 449.349 1491.17 449.937 1489.61 450.249C1488.56 450.435 1487.47 450.266 1486.52 449.767C1485.68 449.225 1485.02 448.432 1484.64 447.498C1484.18 446.311 1483.92 445.055 1483.87 443.782C1483.82 442.882 1483.82 441.98 1483.87 441.08C1483.87 440.211 1483.87 439.246 1483.87 438.136C1483.96 436.584 1484.22 435.047 1484.64 433.551C1485.09 432.003 1485.73 430.513 1486.52 429.111C1487.36 427.626 1488.4 426.262 1489.61 425.057C1490.92 423.756 1492.4 422.636 1494 421.727C1495.35 420.89 1496.84 420.302 1498.4 419.99C1499.45 419.804 1500.54 419.973 1501.48 420.473C1502.33 421.014 1502.99 421.807 1503.37 422.741C1503.83 423.928 1504.09 425.184 1504.14 426.457ZM1520.26 408.359C1520.52 407.805 1520.83 407.273 1521.17 406.767C1521.56 406.296 1522.04 405.902 1522.57 405.608L1527.88 402.52C1528.21 402.297 1528.61 402.21 1528.99 402.278C1529.28 402.278 1529.43 402.665 1529.43 403.147C1529.43 403.63 1529.43 403.147 1529.43 403.533C1529.45 403.726 1529.45 403.92 1529.43 404.112L1497.58 470.905C1497.31 471.459 1497.01 471.991 1496.66 472.497C1496.28 472.979 1495.8 473.374 1495.26 473.655L1489.95 476.744C1489.79 476.857 1489.61 476.937 1489.42 476.978C1489.23 477.02 1489.03 477.022 1488.84 476.985C1488.55 476.985 1488.41 476.599 1488.41 476.117C1488.39 475.988 1488.39 475.859 1488.41 475.731C1488.39 475.538 1488.39 475.344 1488.41 475.151L1520.26 408.359ZM1491.3 439.101C1491.29 439.984 1491.53 440.852 1491.98 441.611C1492.36 442.045 1492.99 441.997 1493.96 441.611C1494.82 441.123 1495.51 440.381 1495.93 439.487C1496.32 438.433 1496.55 437.327 1496.61 436.205C1496.7 434.598 1496.7 432.987 1496.61 431.379C1496.62 430.497 1496.39 429.629 1495.93 428.87C1495.55 428.436 1494.92 428.484 1493.96 428.87C1493.09 429.358 1492.4 430.099 1491.98 430.993C1491.59 432.047 1491.36 433.153 1491.3 434.275C1491.22 435.883 1491.24 437.495 1491.35 439.101H1491.3ZM1534.01 435.24C1534.16 437.12 1534.16 439.007 1534.01 440.887C1533.93 442.515 1533.69 444.132 1533.29 445.713C1532.83 447.258 1532.2 448.747 1531.41 450.153C1530.55 451.637 1529.49 453.001 1528.27 454.207C1526.95 455.509 1525.47 456.644 1523.88 457.585C1522.53 458.418 1521.04 458.991 1519.49 459.274C1518.43 459.484 1517.34 459.313 1516.4 458.791C1515.55 458.25 1514.89 457.457 1514.51 456.523C1514.08 455.344 1513.82 454.109 1513.74 452.855C1513.74 451.89 1513.74 450.973 1513.74 450.104C1513.74 449.236 1513.74 448.27 1513.74 447.16C1513.86 445.612 1514.12 444.077 1514.51 442.576C1514.97 441.028 1515.6 439.538 1516.4 438.136C1517.26 436.667 1518.3 435.306 1519.49 434.082C1520.8 432.792 1522.28 431.673 1523.88 430.752C1525.23 429.915 1526.71 429.327 1528.27 429.015C1529.32 428.828 1530.41 428.998 1531.36 429.497C1532.21 430.039 1532.86 430.832 1533.24 431.766C1533.69 432.875 1533.96 434.047 1534.06 435.24H1534.01ZM1521.22 447.884C1521.21 448.767 1521.45 449.635 1521.9 450.394C1522.28 450.828 1522.96 450.78 1523.88 450.394C1524.76 449.931 1525.46 449.182 1525.86 448.271C1526.27 447.224 1526.5 446.114 1526.53 444.989C1526.67 443.383 1526.67 441.768 1526.53 440.163C1526.56 439.278 1526.32 438.405 1525.86 437.653C1525.47 437.219 1524.84 437.267 1523.88 437.653C1523.02 438.141 1522.32 438.883 1521.9 439.777C1521.51 440.832 1521.29 441.937 1521.22 443.058C1521.15 444.667 1521.16 446.278 1521.27 447.884H1521.22Z" fill="#FAFAFA"/>
<path d="M763.73 1075.46V1347.12L998.999 1211.26V939.656L763.73 1075.46Z" fill="#3155E7"/>
<path opacity="0.7" d="M763.73 1075.46V1347.12L998.999 1211.26V939.656L763.73 1075.46Z" fill="#FAFAFA"/>
<path d="M763.73 1147.27C771.693 1150.36 781.973 1149.11 793.169 1142.45C818.506 1127.97 839.065 1092.21 839.065 1062.96C839.677 1053.45 836.502 1044.08 830.233 1036.9L763.73 1075.27V1147.27Z" fill="#3155E7"/>
<path d="M867.345 1153.98C869.662 1146.35 874.246 1146.02 877.576 1153.3L910.779 1225.69L960.246 1038.4C962.321 1030.67 965.748 1030.63 967.871 1038.4L998.999 1148.96V1211.31L818.168 1315.75L867.345 1153.98Z" fill="#3155E7"/>
<g opacity="0.2">
<path d="M763.73 1147.27C771.693 1150.36 781.973 1149.11 793.169 1142.45C818.506 1127.97 839.065 1092.21 839.065 1062.96C839.677 1053.45 836.502 1044.08 830.233 1036.9L763.73 1075.27V1147.27Z" fill="black"/>
<path d="M867.345 1153.98C869.662 1146.35 874.246 1146.02 877.576 1153.3L910.779 1225.69L960.246 1038.4C962.321 1030.67 965.748 1030.63 967.871 1038.4L998.999 1148.96V1211.31L818.168 1315.75L867.345 1153.98Z" fill="black"/>
</g>
<path d="M994.173 948.198V1208.8L768.556 1339.11V1078.5L994.173 948.198ZM998.999 939.849L763.73 1075.65V1347.31L998.999 1211.46V939.656V939.849Z" fill="#3155E7"/>
<path opacity="0.7" d="M994.173 948.198V1208.8L768.556 1339.11V1078.5L994.173 948.198ZM998.999 939.849L763.73 1075.65V1347.31L998.999 1211.46V939.656V939.849Z" fill="#FAFAFA"/>
<path d="M1077.42 894.388V1166L1312.64 1030.19V758.584L1077.42 894.388Z" fill="#3155E7"/>
<path opacity="0.7" d="M1077.42 894.388V1166L1312.64 1030.19V758.584L1077.42 894.388Z" fill="#FAFAFA"/>
<path d="M1077.42 966.199C1085.38 969.288 1095.62 967.985 1106.81 961.373C1132.15 946.895 1152.71 911.134 1152.71 881.84C1153.31 872.344 1150.14 862.993 1143.88 855.828L1077.42 894.195V966.199Z" fill="#3155E7"/>
<path d="M1180.99 972.907C1183.35 965.234 1187.94 964.944 1191.27 972.184L1224.42 1044.57L1273.94 857.276C1275.96 849.554 1279.39 849.506 1281.56 857.276L1312.64 967.792V1030.24L1131.81 1134.63L1180.99 972.907Z" fill="#3155E7"/>
<g opacity="0.2">
<path d="M1077.42 966.199C1085.38 969.288 1095.62 967.985 1106.81 961.373C1132.15 946.895 1152.71 911.134 1152.71 881.84C1153.31 872.344 1150.14 862.993 1143.88 855.828L1077.42 894.195V966.199Z" fill="black"/>
<path d="M1180.99 972.907C1183.35 965.234 1187.94 964.944 1191.27 972.184L1224.42 1044.57L1273.94 857.276C1275.96 849.554 1279.39 849.506 1281.56 857.276L1312.64 967.792V1030.24L1131.81 1134.63L1180.99 972.907Z" fill="black"/>
</g>
<path d="M1307.82 766.933V1027.54L1082.25 1157.84V897.235L1307.82 766.933ZM1312.64 758.536L1077.42 894.388V1166L1312.64 1030.24V758.536Z" fill="#3155E7"/>
<path opacity="0.7" d="M1307.82 766.933V1027.54L1082.25 1157.84V897.235L1307.82 766.933ZM1312.64 758.536L1077.42 894.388V1166L1312.64 1030.24V758.536Z" fill="#FAFAFA"/>
<path d="M1391.07 713.268V984.924L1626.29 849.12V577.463L1391.07 713.268Z" fill="#3155E7"/>
<path opacity="0.7" d="M1391.07 713.268V984.924L1626.29 849.12V577.463L1391.07 713.268Z" fill="#FAFAFA"/>
<path d="M1391.07 785.127C1399.03 788.216 1409.26 786.913 1420.46 780.301C1445.79 765.823 1466.35 730.11 1466.35 700.816C1466.95 691.306 1463.78 681.941 1457.52 674.756L1391.07 713.123V785.127Z" fill="#3155E7"/>
<path d="M1494.63 791.787C1497 784.162 1501.58 783.872 1504.91 791.111L1538.07 863.502L1587.58 676.155C1589.61 668.434 1593.03 668.434 1595.21 676.155L1626.29 786.72V849.12L1445.45 953.507L1494.63 791.787Z" fill="#3155E7"/>
<g opacity="0.2">
<path d="M1391.07 785.127C1399.03 788.216 1409.26 786.913 1420.46 780.301C1445.79 765.823 1466.35 730.11 1466.35 700.816C1466.95 691.306 1463.78 681.941 1457.52 674.756L1391.07 713.123V785.127Z" fill="black"/>
<path d="M1494.63 791.787C1497 784.162 1501.58 783.872 1504.91 791.111L1538.07 863.502L1587.58 676.155C1589.61 668.434 1593.03 668.434 1595.21 676.155L1626.29 786.719V849.12L1445.46 953.507L1494.63 791.787Z" fill="black"/>
</g>
<path d="M1621.46 585.812V846.417L1395.89 976.72V716.115L1621.46 585.812ZM1626.29 577.463L1391.07 713.268V984.924L1626.29 849.12V577.463Z" fill="#3155E7"/>
<path opacity="0.7" d="M1621.46 585.812V846.417L1395.89 976.72V716.115L1621.46 585.812ZM1626.29 577.463L1391.07 713.268V984.924L1626.29 849.12V577.463Z" fill="#FAFAFA"/>
<path d="M1596.9 670.412L1666.2 688.896L1642.84 702.071L1685.21 733.102L1679.71 741.596L1636.08 710.372L1630.29 735.853L1596.9 670.412Z" fill="#263238"/>
<path d="M1956.82 499.716L1805.48 587.067C1801.82 589.445 1798.78 592.651 1796.6 596.424C1794.42 600.198 1793.16 604.432 1792.93 608.784V731.027L1754.32 770.89C1748.77 776.633 1750.7 780.542 1758.61 779.577L1792.73 775.571V828.947C1792.73 836.91 1798.33 840.192 1805.28 836.186L1956.63 748.787C1960.28 746.412 1963.32 743.207 1965.5 739.433C1967.68 735.659 1968.94 731.422 1969.17 727.07V506.955C1969.37 498.944 1963.77 495.71 1956.82 499.716Z" fill="#37474F"/>
<path d="M1843.36 633.204L1836.99 632.721C1828.59 632.046 1818.6 628.716 1818.6 616.699C1818.85 612.274 1820.13 607.968 1822.34 604.129C1824.55 600.289 1827.64 597.024 1831.34 594.596C1836.84 591.459 1841.53 592.762 1843.31 597.298C1845.13 590.51 1849.39 584.632 1855.28 580.793C1862.33 576.739 1868.02 580.021 1868.02 588.177C1868.02 599.952 1858.08 614.865 1849.73 625.289L1843.36 633.204Z" fill="#FAFAFA"/>
<path d="M1903.49 564.288L1937.27 544.984C1944.18 540.978 1949.82 542.812 1949.82 549.086C1949.3 552.933 1947.9 556.607 1945.72 559.822C1943.54 563.037 1940.65 565.705 1937.27 567.618L1903.49 586.922C1896.54 590.928 1890.94 589.094 1890.94 582.82C1891.46 578.97 1892.86 575.291 1895.03 572.075C1897.21 568.858 1900.11 566.193 1903.49 564.288Z" fill="#FAFAFA"/>
<path d="M1831.1 672.487L1864.88 653.183C1871.83 649.178 1877.43 651.012 1877.43 657.237C1876.93 661.096 1875.53 664.785 1873.35 668.01C1871.17 671.235 1868.27 673.908 1864.88 675.817L1831.1 695.122C1824.2 699.127 1818.6 697.293 1818.6 691.068C1819.11 687.215 1820.5 683.533 1822.67 680.309C1824.84 677.086 1827.72 674.408 1831.1 672.487Z" fill="#FAFAFA"/>
<path d="M1831.1 719.686L1937.27 658.444C1944.18 654.438 1949.82 656.272 1949.82 662.498C1949.31 666.353 1947.91 670.037 1945.73 673.261C1943.55 676.484 1940.66 679.16 1937.27 681.078L1831.1 742.32C1824.2 746.326 1818.6 744.492 1818.6 738.266C1819.11 734.414 1820.5 730.732 1822.67 727.508C1824.84 724.284 1827.72 721.607 1831.1 719.686Z" fill="#FAFAFA"/>
<path d="M1831.1 763.748L1937.27 702.505C1944.18 698.5 1949.82 700.334 1949.82 706.608C1949.3 710.455 1947.9 714.129 1945.72 717.343C1943.54 720.558 1940.65 723.226 1937.27 725.14L1831.1 786.382C1824.2 790.387 1818.6 788.553 1818.6 782.328C1819.11 778.476 1820.5 774.793 1822.67 771.569C1824.84 768.346 1827.72 765.668 1831.1 763.748Z" fill="#FAFAFA"/>
<path d="M244.257 1646.91L479.478 1782.71L714.746 1646.91L479.478 1511.06L244.257 1646.91Z" fill="#3155E7"/>
<path opacity="0.7" d="M244.257 1646.91L479.478 1782.71L714.746 1646.91L479.478 1511.06L244.257 1646.91Z" fill="#FAFAFA"/>
<path d="M306.465 1682.82C320.472 1682.35 334.181 1678.65 346.521 1672.01C371.857 1657.53 371.857 1633.4 346.521 1618.92C335.474 1612.9 323.261 1609.33 310.712 1608.45L244.257 1646.91L306.465 1682.82Z" fill="#3155E7"/>
<path d="M467.654 1656.27C464.517 1651.74 471.129 1650.29 482.422 1652.94L595.109 1679.58L507.131 1571.62C503.512 1567.18 508.579 1566.17 518.52 1569.4L660.936 1615.73L714.94 1646.91L534.108 1751.3L467.654 1656.27Z" fill="#3155E7"/>
<g opacity="0.2">
<path d="M306.465 1682.82C320.472 1682.35 334.181 1678.65 346.521 1672.01C371.857 1657.53 371.857 1633.4 346.521 1618.92C335.474 1612.9 323.261 1609.33 310.712 1608.45L244.257 1646.91L306.465 1682.82Z" fill="black"/>
<path d="M467.654 1656.27C464.517 1651.74 471.129 1650.29 482.422 1652.94L595.109 1679.58L507.131 1571.62C503.512 1567.18 508.579 1566.17 518.52 1569.4L660.936 1615.73L714.94 1646.91L534.108 1751.3L467.654 1656.27Z" fill="black"/>
</g>
<path d="M479.285 1516.66L704.901 1646.96L479.285 1777.26L253.716 1646.96L479.285 1516.66ZM479.285 1511.11L244.257 1646.91L479.285 1782.71L714.553 1646.91L479.285 1511.11Z" fill="#3155E7"/>
<path opacity="0.7" d="M479.285 1516.66L704.901 1646.96L479.285 1777.26L253.716 1646.96L479.285 1516.66ZM479.285 1511.11L244.257 1646.91L479.285 1782.71L714.553 1646.91L479.285 1511.11Z" fill="#FAFAFA"/>
<path d="M244.257 1646.91V1669.54L479.478 1805.35V1782.71L244.257 1646.91Z" fill="#3155E7"/>
<path opacity="0.6" d="M244.257 1646.91V1669.54L479.478 1805.35V1782.71L244.257 1646.91Z" fill="#FAFAFA"/>
<path d="M714.746 1646.91L479.478 1782.71V1805.35L714.746 1669.54V1646.91Z" fill="#3155E7"/>
<path opacity="0.1" d="M714.746 1646.91L479.478 1782.71V1805.35L714.746 1669.54V1646.91Z" fill="#FAFAFA"/>
<path d="M2067.38 1137.96L1832.12 1002.15L1596.9 1137.96L1832.12 1273.76L2067.38 1137.96Z" fill="#263238"/>
<path d="M1832.12 1002.15L1596.9 1137.96V1319.03L1832.12 1454.88V1002.15Z" fill="#263238"/>
<path d="M1655.72 1353.01L1616.54 1081.4L1851.76 945.592L1890.99 1217.2L1655.72 1353.01Z" fill="#3155E7"/>
<path opacity="0.7" d="M1655.72 1353.01L1616.54 1081.4L1851.76 945.592L1890.99 1217.2L1655.72 1353.01Z" fill="#FAFAFA"/>
<path d="M1616.54 1081.4L1593.85 1076.47L1631.79 1339.2L1655.72 1353.01L1616.54 1081.4Z" fill="#3155E7"/>
<path opacity="0.1" d="M1616.54 1081.4L1593.85 1076.47L1631.79 1339.2L1655.72 1353.01L1616.54 1081.4Z" fill="#FAFAFA"/>
<path d="M1829.12 940.67L1851.76 945.592L1616.54 1081.4L1593.85 1076.47L1829.12 940.67Z" fill="#3155E7"/>
<path opacity="0.6" d="M1829.12 940.67L1851.76 945.592L1616.54 1081.4L1593.85 1076.47L1829.12 940.67Z" fill="#FAFAFA"/>
<path d="M1686.71 1079.37C1685.49 1073.69 1683.04 1068.36 1679.53 1063.74C1676.02 1059.12 1671.53 1055.32 1666.39 1052.63L1616.54 1081.59L1623.97 1133.03C1628.69 1135.44 1633.85 1136.88 1639.14 1137.27C1644.42 1137.66 1649.73 1136.99 1654.76 1135.3C1666.04 1131.55 1675.53 1123.77 1681.43 1113.45C1687.33 1103.12 1689.2 1090.99 1686.71 1079.37Z" fill="#3155E7"/>
<path opacity="0.2" d="M1686.71 1079.37C1685.49 1073.69 1683.04 1068.36 1679.53 1063.74C1676.02 1059.12 1671.53 1055.32 1666.39 1052.63L1616.54 1081.59L1623.97 1133.03C1628.69 1135.44 1633.85 1136.88 1639.14 1137.27C1644.42 1137.66 1649.73 1136.99 1654.76 1135.3C1666.04 1131.55 1675.53 1123.77 1681.43 1113.45C1687.33 1103.12 1689.2 1090.99 1686.71 1079.37Z" fill="black"/>
<path d="M1739.94 1090.71C1741.43 1082.84 1745.49 1082.31 1749.01 1089.5L1783.66 1160.54L1810.11 1008.48C1811.46 1000.61 1815.61 999.933 1819.37 1006.98L1875.89 1112.62L1890.99 1217.1L1694.96 1330.37C1694.57 1328.25 1729.76 1143.89 1739.94 1090.71Z" fill="#3155E7"/>
<path opacity="0.2" d="M1739.94 1090.71C1741.43 1082.84 1745.49 1082.31 1749.01 1089.5L1783.66 1160.54L1810.11 1008.48C1811.46 1000.61 1815.61 999.933 1819.37 1006.98L1875.89 1112.62L1890.99 1217.1L1694.96 1330.37C1694.57 1328.25 1729.76 1143.89 1739.94 1090.71Z" fill="black"/>
<path d="M1847.99 953.314L1885.73 1214.64L1659.49 1345.28L1621.75 1083.95L1847.99 953.314ZM1851.76 945.592L1616.54 1081.4L1655.72 1353.01L1890.99 1217.2L1851.76 945.592Z" fill="#3155E7"/>
<path opacity="0.7" d="M1847.99 953.314L1885.73 1214.64L1659.49 1345.28L1621.75 1083.95L1847.99 953.314ZM1851.76 945.592L1616.54 1081.4L1655.72 1353.01L1890.99 1217.2L1851.76 945.592Z" fill="#FAFAFA"/>
<path d="M1734.15 1398.27L1694.91 1126.66L1930.18 990.86L1969.37 1262.47L1734.15 1398.27Z" fill="#3155E7"/>
<path opacity="0.7" d="M1734.15 1398.27L1694.91 1126.66L1930.18 990.86L1969.37 1262.47L1734.15 1398.27Z" fill="#FAFAFA"/>
<path d="M1694.91 1126.66L1672.28 1121.74L1710.21 1384.47L1734.15 1398.27L1694.91 1126.66Z" fill="#3155E7"/>
<path opacity="0.1" d="M1694.91 1126.66L1672.28 1121.74L1710.21 1384.47L1734.15 1398.27L1694.91 1126.66Z" fill="#FAFAFA"/>
<path d="M1907.5 985.938L1930.18 990.86L1694.91 1126.66L1672.28 1121.74L1907.5 985.938Z" fill="#3155E7"/>
<path opacity="0.6" d="M1907.5 985.938L1930.18 990.86L1694.91 1126.66L1672.28 1121.74L1907.5 985.938Z" fill="#FAFAFA"/>
<path d="M1765.08 1124.64C1763.88 1118.95 1761.43 1113.6 1757.92 1108.97C1754.4 1104.34 1749.91 1100.55 1744.76 1097.85L1694.91 1126.81L1702.34 1178.25C1707.07 1180.66 1712.22 1182.1 1717.51 1182.49C1722.8 1182.88 1728.11 1182.21 1733.13 1180.52C1744.4 1176.77 1753.89 1169 1759.79 1158.69C1765.68 1148.37 1767.57 1136.25 1765.08 1124.64Z" fill="#3155E7"/>
<path opacity="0.2" d="M1765.08 1124.64C1763.88 1118.95 1761.43 1113.6 1757.92 1108.97C1754.4 1104.34 1749.91 1100.55 1744.76 1097.85L1694.91 1126.81L1702.34 1178.25C1707.07 1180.66 1712.22 1182.1 1717.51 1182.49C1722.8 1182.88 1728.11 1182.21 1733.13 1180.52C1744.4 1176.77 1753.89 1169 1759.79 1158.69C1765.68 1148.37 1767.57 1136.25 1765.08 1124.64Z" fill="black"/>
<path d="M1818.36 1135.98C1819.86 1128.11 1823.91 1127.58 1827.43 1134.77L1862.09 1205.86L1888.48 1053.84C1889.83 1045.93 1894.03 1045.3 1897.8 1052.34L1954.31 1157.99L1969.37 1262.47L1773.33 1375.64C1772.95 1373.52 1808.18 1189.16 1818.36 1135.98Z" fill="#3155E7"/>
<path opacity="0.2" d="M1818.36 1135.98C1819.86 1128.11 1823.91 1127.58 1827.43 1134.77L1862.09 1205.86L1888.48 1053.84C1889.83 1045.93 1894.03 1045.3 1897.8 1052.34L1954.31 1157.99L1969.37 1262.47L1773.33 1375.64C1772.95 1373.52 1808.18 1189.16 1818.36 1135.98Z" fill="black"/>
<path d="M1926.42 998.582L1964.16 1259.91L1737.91 1390.55L1700.27 1129.22L1926.51 998.582M1930.28 990.86L1694.91 1126.76L1734.05 1398.27L1969.27 1262.47L1930.08 990.86H1930.28Z" fill="#3155E7"/>
<path opacity="0.7" d="M1926.42 998.582L1964.16 1259.91L1737.91 1390.55L1700.27 1129.22L1926.51 998.582M1930.28 990.86L1694.91 1126.76L1734.05 1398.27L1969.27 1262.47L1930.08 990.86H1930.28Z" fill="#FAFAFA"/>
<path d="M1832.12 1454.88L2067.38 1319.08V1137.96L1832.12 1273.76V1454.88Z" fill="#37474F"/>
<path d="M1832.16 1273.76L1596.9 1137.96V1319.03L1832.16 1454.93V1273.76ZM1731.4 1260.88L1697.61 1241.57C1694.22 1239.66 1691.32 1236.99 1689.15 1233.76C1686.97 1230.54 1685.57 1226.85 1685.07 1222.99C1685.07 1216.72 1690.66 1214.93 1697.61 1218.89L1731.4 1238.19C1734.78 1240.11 1737.67 1242.79 1739.85 1246.01C1742.03 1249.23 1743.43 1252.92 1743.94 1256.77C1743.94 1263.05 1738.3 1264.88 1731.4 1260.88Z" fill="#455A64"/>
<path d="M2067.41 1137.94L1832.15 1273.76L1890.96 1375.62L2126.22 1239.79L2067.41 1137.94Z" fill="#455A64"/>
<path d="M1596.89 1183.23L1577.3 1194.57L1596.89 1137.96V1183.23Z" fill="#263238"/>
<path d="M755.864 297.071L740.71 302.911V269.466C740.71 242.971 719.524 236.601 696.552 249.873C673.58 263.096 655 295.382 655 321.877V326.703C651.766 325.704 648.347 325.454 645.003 325.972C641.658 326.491 638.475 327.764 635.696 329.695C626.969 335.362 619.706 343.011 614.498 352.018C609.289 361.026 606.284 371.137 605.726 381.527V383.747L584.588 395.956C578.84 399.684 574.056 404.718 570.625 410.648C567.195 416.578 565.216 423.235 564.85 430.076C564.85 442.672 573.681 447.74 584.588 441.466L755.864 342.581C761.618 338.848 766.406 333.806 769.837 327.867C773.268 321.928 775.243 315.262 775.602 308.412C775.602 295.913 766.77 290.797 755.864 297.071Z" fill="#F0F0F0"/>
<path d="M1093.06 1589.72L1092.19 1560.52L1116.32 1556.37L1117.72 1581.28C1118.88 1587.07 1122.98 1588.95 1124.04 1592.23C1125.1 1595.51 1107.54 1628.91 1097.69 1636.29C1087.85 1643.68 1071.82 1634.22 1070.28 1630.69C1068.73 1627.17 1083.45 1629.78 1085.87 1624.66C1089.15 1617.81 1093.06 1589.72 1093.06 1589.72Z" fill="#FFA8A7"/>
<path d="M1119.89 1586.1C1116.71 1588.76 1114.29 1595.46 1109.9 1604.63C1105.51 1613.8 1099.28 1628.76 1092.48 1630.74C1084.56 1633.25 1069.02 1628.72 1078.92 1627.94C1081.09 1627.94 1084.9 1626.98 1085.92 1624.66C1086.31 1623.86 1086.61 1623.02 1086.83 1622.15C1083.41 1623.08 1079.85 1623.41 1076.31 1623.12C1073.69 1622.71 1071 1623.05 1068.56 1624.1C1066.12 1625.15 1064.02 1626.87 1062.51 1629.05C1060.87 1631.51 1063.52 1635.67 1063.52 1635.67C1066.56 1639.38 1072.21 1643.1 1085.24 1644.06C1098.27 1645.03 1105.99 1643.15 1110.67 1634.41C1116.7 1624.65 1123.31 1615.25 1130.46 1606.27C1135.33 1598.79 1127.47 1588.08 1119.89 1586.1Z" fill="#263238"/>
<path d="M1086.69 1622.68C1085.92 1624.66 1080.17 1625.29 1077.33 1625.68C1074.48 1626.06 1073.08 1628.72 1077.71 1630.21C1085.72 1631.03 1089.68 1622.54 1086.69 1622.68Z" fill="#FFA8A7"/>
<path d="M1321.86 1495.32L1301.78 1474.23L1317.13 1454.93L1334.7 1472.64C1339.52 1476.21 1343.77 1474.91 1346.71 1476.65C1349.66 1478.39 1358.73 1515.26 1356.37 1527.13C1354 1539 1335.66 1542.72 1332.24 1541.08C1328.81 1539.43 1341.5 1531.66 1339.91 1526.26C1337.54 1518.92 1321.86 1495.32 1321.86 1495.32Z" fill="#FFA8A7"/>
<path d="M1339.52 1474.81C1338.9 1478.92 1341.5 1485.53 1344.35 1495.28C1347.2 1505.02 1352.36 1520.32 1348.64 1526.4C1344.4 1533.5 1329.77 1540.45 1336.68 1533.31C1338.17 1531.71 1340.49 1528.48 1339.72 1526.21C1339.47 1525.35 1339.15 1524.51 1338.75 1523.7C1336.78 1526.67 1334.32 1529.28 1331.46 1531.42C1329.23 1532.85 1327.44 1534.88 1326.32 1537.28C1325.2 1539.68 1324.79 1542.36 1325.14 1544.98C1325.53 1547.93 1330.26 1549.28 1330.26 1549.28C1335.08 1550.05 1341.69 1549.04 1352.07 1541.17C1362.45 1533.31 1366.98 1526.69 1364.62 1517.04C1362.66 1505.74 1361.36 1494.33 1360.71 1482.87C1359.5 1474.23 1346.47 1471.24 1339.52 1474.81Z" fill="#263238"/>
<path d="M1338.94 1524.18C1339.67 1526.21 1335.76 1530.46 1333.88 1532.68C1331.99 1534.9 1332.72 1537.75 1337.21 1535.77C1343.77 1531.09 1341.07 1522.11 1338.94 1524.18Z" fill="#FFA8A7"/>
<path d="M1159.22 1048.19C1165.64 1025.9 1161.59 1012.34 1156.67 993.032C1147.59 957.705 1139 922.234 1139 922.234C1139 922.234 1132.58 787.685 1132.29 775.427C1131.96 760.948 1129.16 752.841 1127.95 740.583C1127.27 733.633 1122.3 732.909 1122.79 733.151V760.369C1118.34 756.396 1114.13 752.157 1110.19 747.677C1105.65 742.224 1101.07 742.851 1099.62 745.602C1098.17 748.353 1105.65 753.709 1109.27 760.804C1113.35 767.892 1117.88 774.711 1122.83 781.218V854.766L1103.53 865.963L1099.77 936.23L1129.78 1045.54L1159.22 1048.19Z" fill="#FFA8A7"/>
<path d="M1071.63 1002.01L1075.78 1038.59L1111.83 1042.74L1106.62 994.19L1071.63 1002.01Z" fill="#FFA8A7"/>
<path d="M887.518 718.962V990.571L1122.79 854.766V583.11L887.518 718.962Z" fill="#3155E7"/>
<path opacity="0.7" d="M887.518 718.962V990.571L1122.79 854.766V583.11L887.518 718.962Z" fill="#FAFAFA"/>
<path d="M887.518 790.773C895.481 793.862 905.76 792.559 916.957 785.947C942.293 771.469 962.852 735.708 962.852 706.414C963.443 696.905 960.271 687.545 954.021 680.354L887.518 718.962V790.773Z" fill="#3155E7"/>
<path opacity="0.2" d="M887.518 790.773C895.481 793.862 905.76 792.559 916.957 785.947C942.293 771.469 962.852 735.708 962.852 706.414C963.443 696.905 960.271 687.545 954.021 680.354L887.518 718.962V790.773Z" fill="black"/>
<path d="M991.133 797.482C993.449 789.808 998.034 789.519 1001.36 796.758L1034.57 869.148L1084.08 681.85C1086.11 674.128 1089.54 674.08 1091.66 681.85L1122.79 792.414V854.815L941.956 959.202L991.133 797.482Z" fill="#3155E7"/>
<path opacity="0.2" d="M991.133 797.482C993.449 789.808 998.034 789.519 1001.36 796.758L1034.57 869.148L1084.08 681.85C1086.11 674.128 1089.54 674.08 1091.66 681.85L1122.79 792.414V854.815L941.956 959.202L991.133 797.482Z" fill="black"/>
<path d="M1117.96 591.507V852.112L892.344 982.415V721.809L1117.96 591.507ZM1122.79 583.11L887.518 718.962V990.571L1122.79 854.766V583.11Z" fill="#3155E7"/>
<path opacity="0.7" d="M1117.96 591.507V852.112L892.344 982.415V721.809L1117.96 591.507ZM1122.79 583.11L887.518 718.962V990.571L1122.79 854.766V583.11Z" fill="#FAFAFA"/>
<path d="M887.518 990.571L867.924 979.278V707.621L887.518 718.962V990.571Z" fill="#3155E7"/>
<path opacity="0.1" d="M887.518 990.571L867.924 979.278V707.621L887.518 718.962V990.571Z" fill="#FAFAFA"/>
<path d="M867.924 707.621L1103.14 571.817L1122.79 583.11L887.518 718.962L867.924 707.621Z" fill="#3155E7"/>
<path opacity="0.6" d="M867.924 707.621L1103.14 571.817L1122.79 583.11L887.518 718.962L867.924 707.621Z" fill="#FAFAFA"/>
<path d="M1159.22 1048.19C1158.6 1051.33 1157.15 1057.51 1154.4 1067.93C1149.09 1087.24 1141.08 1114.6 1137.65 1123.72C1137.65 1124.11 1137.36 1124.44 1137.22 1124.73L1151.45 1147.9C1151.45 1147.9 1141.8 1159.72 1113.52 1167.98C1085.24 1176.23 1050.78 1159.48 1050.78 1159.48C1050.78 1159.48 1043.5 1121.26 1042.14 1110.55C1042.14 1109.92 1042.14 1108.95 1041.76 1107.84C1041.47 1105.57 1041.18 1103.55 1040.74 1101.67C1040.74 1101.67 1040.74 1101.33 1040.74 1101.13C1040.21 1098.82 1039.83 1095.73 1039.15 1092.3C1038.38 1086.4 1036.23 1080.76 1032.87 1075.84C1029.5 1070.93 1025.03 1066.88 1019.8 1064.02C1015.79 1061.85 932.641 1028.94 919.515 1020.93C916.159 1019.19 913.225 1016.74 910.923 1013.75C908.621 1010.75 907.007 1007.29 906.195 1003.6C904.361 998.534 879.072 915.043 876.08 906.743C873.548 899.823 869.296 893.662 863.726 888.838C857.162 881.792 854.846 880.2 852.819 873.878C850.792 867.555 853.35 866.011 854.363 862.874C855.763 858.531 854.363 855.49 855.135 852.209C856.342 848.107 858.851 847.045 859.479 845.211C859.791 841.955 860.355 838.728 861.168 835.559C862.483 832.507 864.845 830.026 867.828 828.561V838.213C871.447 853.029 887.711 860.316 889.786 859.255C891.861 858.193 894.902 849.603 899.438 846.031C903.975 842.46 910.249 842.798 907.932 847.286C906.629 849.892 903.637 859.592 902.093 863.888C900.548 868.183 895.964 877.207 896.977 884.109C898.28 893.326 941.135 988.351 941.135 988.351C941.135 988.351 987.706 1003.6 1024.67 1015.09C1047.6 1022.23 1066.47 1026.62 1066.47 1026.62L1077.9 1024.59L1082.2 1023.82L1137.89 1013.59L1139.92 1013.2C1141.75 1012.96 1143.59 1012.96 1145.42 1013.2C1147.98 1013.96 1150.35 1015.24 1152.38 1016.97C1154.4 1018.7 1156.05 1020.84 1157.2 1023.24C1160.79 1031.06 1161.51 1039.9 1159.22 1048.19Z" fill="#FFA8A7"/>
<path d="M1078.53 1178.93C1078.53 1178.93 1148.61 1350.06 1154.98 1365.7C1159 1377.12 1166.91 1386.77 1177.32 1392.96C1186.68 1399.48 1308.73 1483.5 1308.73 1483.5C1327.41 1475.73 1327.8 1463.57 1327.8 1463.57C1327.8 1463.57 1264.77 1383.22 1251.45 1371.63C1238.13 1360.05 1213.47 1354.16 1213.47 1354.16L1182.44 1223.86C1178.29 1203.88 1180.84 1181.78 1151.12 1147.75L1078.53 1178.93Z" fill="#37474F"/>
<path d="M1100.44 1169.37C1114.92 1189.45 1128.19 1207.11 1131.96 1230.23C1139.87 1279.12 1120.71 1338.77 1118.39 1375.25C1125.35 1386.26 1129.58 1398.77 1130.75 1411.74C1131.43 1426.75 1118.2 1564.92 1118.2 1564.92C1110.03 1569.43 1100.6 1571.12 1091.37 1569.74C1091.37 1569.74 1061.93 1370.09 1056.28 1305.18C1050.64 1240.27 1050.49 1159.67 1050.49 1159.67L1100.44 1169.37Z" fill="#37474F"/>
<path d="M1048.37 947.619C1046.49 942.467 1045.95 936.924 1046.8 931.507C1047.64 926.089 1049.84 920.973 1053.2 916.636C1066.95 898.056 1093.11 890.141 1120.76 899.745C1134.51 904.571 1151.31 920.207 1150.87 954.134C1150.58 974.934 1091.8 986.131 1092.09 1000.42L1048.37 947.619Z" fill="#263238"/>
<path d="M1046.58 955.389C1046.58 955.389 1037.85 967.406 1038.86 968.805C1040.71 970.142 1042.79 971.138 1044.99 971.749L1046.58 955.389Z" fill="#F28F8F"/>
<path d="M1073.37 917.215C1065.21 920.979 1051.12 927.977 1046.25 957.175C1041.42 987.193 1046.25 997.038 1050.06 1001.19C1052.71 1003.99 1067.67 1004.66 1075.2 1002.68C1084.85 1000.17 1106.09 993.032 1116.27 977.733C1128.24 959.925 1131.62 935.651 1119.17 925.516C1112.85 920.383 1105.34 916.931 1097.33 915.479C1089.33 914.028 1081.08 914.625 1073.37 917.215Z" fill="#FFA8A7"/>
<path d="M1050.49 1159.53L1151.31 1147.9C1158.4 1159.53 1175.44 1179.41 1171.82 1198.52C1167.43 1221.64 1154.98 1237.9 1116.9 1249.25" fill="#37474F"/>
<path d="M1150.1 1082.75C1144.99 1101.71 1140.79 1115.08 1137.55 1123.72C1137.55 1124.11 1137.26 1124.44 1137.12 1124.73L1151.36 1147.9C1151.36 1147.9 1141.7 1159.72 1113.42 1167.98C1085.14 1176.23 1050.69 1159.48 1050.69 1159.48C1050.69 1159.48 1043.4 1121.26 1042.05 1110.55C1042.05 1109.92 1042.05 1108.95 1041.66 1107.84C1041.28 1106.73 1041.03 1103.89 1040.65 1101.67C1040.65 1101.67 1040.65 1101.33 1040.65 1101.13C1040.02 1097.32 1039.34 1093.61 1039.06 1092.3C1075.4 1076.09 1066.85 1026.48 1066.85 1026.48L1078.29 1024.45L1082.59 1023.68C1099.24 1020.73 1111.11 1018.51 1126.02 1015.57C1126.6 1015.42 1158.4 1051.86 1150.1 1082.75Z" fill="#FAFAFA"/>
<path d="M1140.45 1114.94C1128.89 1122.33 1116.7 1128.68 1104.01 1133.9C1115.63 1133.66 1126.99 1130.51 1137.07 1124.73L1140.45 1114.94Z" fill="#F0F0F0"/>
<path d="M1070.95 918.374C1070.95 918.374 1062.8 945.544 1070.33 963.304C1070.33 963.304 1075.68 952.783 1084.81 956.306C1093.93 959.829 1092.58 972.135 1084.81 978.12C1082.87 979.848 1080.48 980.992 1077.92 981.419C1075.35 981.846 1072.72 981.539 1070.33 980.533C1070.72 989.35 1073.94 997.807 1079.5 1004.66C1089.05 1007.92 1099.33 1008.41 1109.15 1006.08C1118.96 1003.75 1127.93 998.689 1135 991.488C1158.31 968.661 1157.34 925.854 1124.96 913.451C1092.58 901.048 1070.95 918.374 1070.95 918.374Z" fill="#263238"/>
<path d="M1129.59 1303.68L1137.84 1237.33C1137.84 1237.33 1161.97 1228.16 1172.35 1213.97C1167.68 1226.27 1159.24 1236.78 1148.22 1243.99C1146.58 1246.06 1133.74 1314.11 1133.74 1314.11L1129.59 1303.68Z" fill="#263238"/>
<path d="M1166.17 945.64C1154.98 950.466 1146.53 941.587 1140.4 927.398C1134.27 913.209 1132.92 899.021 1144.07 894.195C1155.22 889.369 1168.68 898.442 1174.76 912.63C1180.84 926.819 1177.32 940.814 1166.17 945.64Z" fill="#263238"/>
<path d="M1122.79 760.369C1119.47 758.453 1116.64 755.813 1114.49 752.648C1111.11 747.822 1106.28 745.505 1103.39 747.146C1101.26 748.304 1103.77 751.972 1105.36 755.012C1107.71 760.905 1110.97 766.393 1115.02 771.276C1119.5 775.427 1122.74 776.44 1122.74 781.218C1125.2 778.43 1126.5 774.801 1126.36 771.083C1126.31 767.227 1125.07 763.481 1122.79 760.369Z" fill="#FFA8A7"/>
</svg>
